<svg width="17" height="14" viewBox="0 0 17 14" fill="none" xmlns="http://www.w3.org/2000/svg">
<g clip-path="url(#clip0_1_1766)">
<path d="M2.4375 2.53125C2.4375 2.20802 2.5659 1.89802 2.79446 1.66946C3.02302 1.4409 3.33302 1.3125 3.65625 1.3125C3.97948 1.3125 4.28948 1.4409 4.51804 1.66946C4.7466 1.89802 4.875 2.20802 4.875 2.53125C4.875 2.85448 4.7466 3.16448 4.51804 3.39304C4.28948 3.6216 3.97948 3.75 3.65625 3.75C3.33302 3.75 3.02302 3.6216 2.79446 3.39304C2.5659 3.16448 2.4375 2.85448 2.4375 2.53125ZM5.6875 2.53125C5.6875 1.99253 5.47349 1.47587 5.09256 1.09494C4.71163 0.714006 4.19497 0.5 3.65625 0.5C3.11753 0.5 2.60087 0.714006 2.21994 1.09494C1.83901 1.47587 1.625 1.99253 1.625 2.53125C1.625 3.06997 1.83901 3.58663 2.21994 3.96756C2.60087 4.34849 3.11753 4.5625 3.65625 4.5625C4.19497 4.5625 4.71163 4.34849 5.09256 3.96756C5.47349 3.58663 5.6875 3.06997 5.6875 2.53125ZM8.125 4.5625C8.55598 4.5625 8.9693 4.7337 9.27405 5.03845C9.57879 5.3432 9.75 5.75652 9.75 6.1875C9.75 6.61848 9.57879 7.0318 9.27405 7.33655C8.9693 7.64129 8.55598 7.8125 8.125 7.8125C7.69402 7.8125 7.2807 7.64129 6.97595 7.33655C6.67121 7.0318 6.5 6.61848 6.5 6.1875C6.5 5.75652 6.67121 5.3432 6.97595 5.03845C7.2807 4.7337 7.69402 4.5625 8.125 4.5625ZM8.125 8.625C8.4451 8.625 8.76206 8.56195 9.05779 8.43946C9.35352 8.31696 9.62223 8.13742 9.84857 7.91107C10.0749 7.68473 10.2545 7.41602 10.377 7.12029C10.4995 6.82456 10.5625 6.5076 10.5625 6.1875C10.5625 5.8674 10.4995 5.55044 10.377 5.25471C10.2545 4.95898 10.0749 4.69027 9.84857 4.46393C9.62223 4.23758 9.35352 4.05804 9.05779 3.93554C8.76206 3.81305 8.4451 3.75 8.125 3.75C7.8049 3.75 7.48794 3.81305 7.19221 3.93554C6.89648 4.05804 6.62777 4.23758 6.40143 4.46393C6.17508 4.69027 5.99554 4.95898 5.87304 5.25471C5.75055 5.55044 5.6875 5.8674 5.6875 6.1875C5.6875 6.5076 5.75055 6.82456 5.87304 7.12029C5.99554 7.41602 6.17508 7.68473 6.40143 7.91107C6.62777 8.13742 6.89648 8.31696 7.19221 8.43946C7.48794 8.56195 7.8049 8.625 8.125 8.625ZM6.63457 10.25H9.61543C10.9916 10.25 12.1139 11.3291 12.185 12.6875H4.06504C4.13613 11.3291 5.2584 10.25 6.63457 10.25ZM6.63457 9.4375C4.76582 9.4375 3.25 10.9533 3.25 12.8221C3.25 13.1953 3.55215 13.5 3.92793 13.5H12.3221C12.6953 13.5 13 13.1979 13 12.8221C13 10.9533 11.4842 9.4375 9.61543 9.4375H6.63457ZM13 1.3125C13.3232 1.3125 13.6332 1.4409 13.8618 1.66946C14.0903 1.89802 14.2188 2.20802 14.2188 2.53125C14.2188 2.85448 14.0903 3.16448 13.8618 3.39304C13.6332 3.6216 13.3232 3.75 13 3.75C12.6768 3.75 12.3668 3.6216 12.1382 3.39304C11.9097 3.16448 11.7812 2.85448 11.7812 2.53125C11.7812 2.20802 11.9097 1.89802 12.1382 1.66946C12.3668 1.4409 12.6768 1.3125 13 1.3125ZM13 4.5625C13.5387 4.5625 14.0554 4.34849 14.4363 3.96756C14.8172 3.58663 15.0312 3.06997 15.0312 2.53125C15.0312 1.99253 14.8172 1.47587 14.4363 1.09494C14.0554 0.714006 13.5387 0.5 13 0.5C12.4613 0.5 11.9446 0.714006 11.5637 1.09494C11.1828 1.47587 10.9688 1.99253 10.9688 2.53125C10.9688 3.06997 11.1828 3.58663 11.5637 3.96756C11.9446 4.34849 12.4613 4.5625 13 4.5625ZM13.4062 6.1875C14.5285 6.1875 15.4375 7.09648 15.4375 8.21875C15.4375 8.44219 15.6203 8.625 15.8438 8.625C16.0672 8.625 16.25 8.44219 16.25 8.21875C16.25 6.64707 14.9779 5.375 13.4062 5.375H11.2734C11.3395 5.63398 11.375 5.9082 11.375 6.1875H13.4062ZM4.875 6.1875C4.875 5.9082 4.91055 5.63398 4.97656 5.375H2.84375C1.27207 5.375 0 6.64707 0 8.21875C0 8.44219 0.182812 8.625 0.40625 8.625C0.629687 8.625 0.8125 8.44219 0.8125 8.21875C0.8125 7.09648 1.72148 6.1875 2.84375 6.1875H4.875Z" fill="#8C8DFF"/>
</g>
<defs>
<clipPath id="clip0_1_1766">
<rect width="16.25" height="13" fill="white" transform="translate(0 0.5)"/>
</clipPath>
</defs>
</svg>
